<svg xmlns="http://www.w3.org/2000/svg" viewBox="0 0 980 256" role="img" aria-labelledby="title desc">
  <title id="title">ContinuityPanel</title>
  <desc id="desc">ContinuityPanel logo with connected agent panels and shared context core.</desc>
  <defs>
    <linearGradient id="panel" x1="24" y1="48" x2="232" y2="208" gradientUnits="userSpaceOnUse">
      <stop offset="0" stop-color="#22D3EE"/><stop offset="1" stop-color="#8B5CF6"/>
    </linearGradient>
    <linearGradient id="relay" x1="54" y1="128" x2="202" y2="128" gradientUnits="userSpaceOnUse">
      <stop offset="0" stop-color="#67E8F9"/><stop offset="0.5" stop-color="#A78BFA"/><stop offset="1" stop-color="#C084FC"/>
    </linearGradient>
  </defs>
  <rect width="980" height="256" rx="36" fill="#020617"/>
  <g>
    <rect x="22" y="46" width="88" height="164" rx="24" fill="#0F172A" stroke="url(#panel)" stroke-width="8"/>
    <rect x="146" y="46" width="88" height="164" rx="24" fill="#0F172A" stroke="url(#panel)" stroke-width="8"/>
    <path d="M54 128C76 91 98 91 128 128S180 165 202 128C180 91 158 91 128 128S76 165 54 128Z" fill="none" stroke="url(#relay)" stroke-width="11" stroke-linecap="round" stroke-linejoin="round"/>
    <circle cx="54" cy="128" r="9" fill="#67E8F9"/><circle cx="202" cy="128" r="9" fill="#C084FC"/>
    <rect x="115" y="115" width="26" height="26" rx="7" transform="rotate(45 128 128)" fill="#A78BFA"/>
  </g>
  <text x="282" y="151" fill="#E2E8F0" font-family="Inter, ui-sans-serif, -apple-system, BlinkMacSystemFont, Segoe UI, sans-serif" font-size="86" font-weight="750" letter-spacing="-3">Continuity<tspan fill="url(#panel)">Panel</tspan></text>
  <text x="287" y="193" fill="#94A3B8" font-family="Inter, ui-sans-serif, -apple-system, BlinkMacSystemFont, Segoe UI, sans-serif" font-size="22" font-weight="500" letter-spacing="3.5">SWITCH AGENTS. KEEP THE CONTEXT.</text>
</svg>
